<?xml version="1.0" encoding="UTF-8"?>
<svg width="800px" height="800px" viewBox="0 0 24 24" version="1.1" xmlns="http://www.w3.org/2000/svg" xmlns:xlink="http://www.w3.org/1999/xlink">
    <title>Ceiling Fan</title>
    <g stroke="none" stroke-width="1" fill="none" fill-rule="evenodd">
        <circle cx="12" cy="12" r="2.5" stroke="#000000" stroke-width="1.5" stroke-linecap="round" stroke-linejoin="round"></circle>
        <path d="M12,2 L12,9.5" stroke="#000000" stroke-width="1.5" stroke-linecap="round" stroke-linejoin="round"></path>
        <path d="M20.66,7 L14.5,10.5" stroke="#000000" stroke-width="1.5" stroke-linecap="round" stroke-linejoin="round"></path>
        <path d="M20.66,17 L14.5,13.5" stroke="#000000" stroke-width="1.5" stroke-linecap="round" stroke-linejoin="round"></path>
        <path d="M12,22 L12,14.5" stroke="#000000" stroke-width="1.5" stroke-linecap="round" stroke-linejoin="round"></path>
        <path d="M3.34,17 L9.5,13.5" stroke="#000000" stroke-width="1.5" stroke-linecap="round" stroke-linejoin="round"></path>
        <path d="M3.34,7 L9.5,10.5" stroke="#000000" stroke-width="1.5" stroke-linecap="round" stroke-linejoin="round"></path>
        <path d="M8,2 C8,2 9,3 12,3 C15,3 16,2 16,2" stroke="#000000" stroke-width="1.5" stroke-linecap="round" stroke-linejoin="round"></path>
        <path d="M2,8 C2,8 3,9 3,12 C3,15 2,16 2,16" stroke="#000000" stroke-width="1.5" stroke-linecap="round" stroke-linejoin="round" transform="translate(2.500000, 12.000000) rotate(90.000000) translate(-2.500000, -12.000000)"></path>
        <path d="M8,22 C8,22 9,21 12,21 C15,21 16,22 16,22" stroke="#000000" stroke-width="1.5" stroke-linecap="round" stroke-linejoin="round"></path>
        <path d="M22,8 C22,8 21,9 21,12 C21,15 22,16 22,16" stroke="#000000" stroke-width="1.5" stroke-linecap="round" stroke-linejoin="round" transform="translate(21.500000, 12.000000) rotate(90.000000) translate(-21.500000, -12.000000)"></path>
    </g>
</svg>