<?xml version="1.0" encoding="UTF-8"?>
<svg width="800px" height="800px" viewBox="0 0 24 24" version="1.1" xmlns="http://www.w3.org/2000/svg" xmlns:xlink="http://www.w3.org/1999/xlink">
    <title>Kitchen Faucet</title>
    <g stroke="none" stroke-width="1" fill="none" fill-rule="evenodd">
        <path d="M10,3 L10,4 L11,4 L11,5 L13,5 L13,4 L14,4 L14,3 L10,3 Z" fill="#4A90E2" fill-rule="nonzero"></path>
        <path d="M12,5 L12,8 C12,8.55228475 11.5522847,9 11,9 L7,9 C6.44771525,9 6,9.44771525 6,10 L6,20 C6,20.5522847 6.44771525,21 7,21 L17,21 C17.5522847,21 18,20.5522847 18,20 L18,10 C18,9.44771525 17.5522847,9 17,9 L13,9 C12.4477153,9 12,8.55228475 12,8 L12,5 Z" stroke="#000000" stroke-width="1.5" stroke-linecap="round" stroke-linejoin="round"></path>
        <path d="M9,13 C9,11.8954305 9.8954305,11 11,11 L13,11 C14.1045695,11 15,11.8954305 15,13 L15,14 C15,15.1045695 14.1045695,16 13,16 L11,16 C9.8954305,16 9,15.1045695 9,14 L9,13 Z" stroke="#000000" stroke-width="1.5" stroke-linecap="round" stroke-linejoin="round"></path>
        <line x1="12" y1="16" x2="12" y2="18" stroke="#000000" stroke-width="1.5" stroke-linecap="round" stroke-linejoin="round"></line>
    </g>
</svg>